name Walk4.mot
datacolumns 19
datarows 20
range 1.38000000 1.47500000
endheader

                time	   L_ground_force_vx	   L_ground_force_vy	   L_ground_force_vz	   L_ground_force_px	   L_ground_force_py	   L_ground_force_pz	   R_ground_force_vx	   R_ground_force_vy	   R_ground_force_vz	   R_ground_force_px	   R_ground_force_py	   R_ground_force_pz	   L_ground_torque_x	   L_ground_torque_y	   L_ground_torque_z	   R_ground_torque_x	   R_ground_torque_y	   R_ground_torque_z	
          1.38000000	         46.12368431	        508.15172236	         17.63550108	         -0.08633948	          0.00000000	         -0.00757255	         -0.08885934	          0.70628959	          0.04450205	          0.00042581	          0.00000000	          0.00004757	          0.00000000	          0.61725480	          0.00000000	          0.00000000	          0.01275457	          0.00000000	
          1.38500000	         50.45434702	        519.94757508	         18.79672266	         -0.08605594	          0.00000000	         -0.00775108	         -0.11080256	          0.53871961	          0.02757091	          0.00007520	          0.00000000	         -0.00001231	          0.00000000	          0.65381020	          0.00000000	          0.00000000	          0.01799184	          0.00000000	
          1.39000000	         54.87623235	        531.43631514	         19.86470872	         -0.08571398	          0.00000000	         -0.00785217	         -0.13135530	          0.21097514	         -0.00223143	         -0.00048082	          0.00000000	         -0.00010418	          0.00000000	          0.69013073	          0.00000000	          0.00000000	          0.02393984	          0.00000000	
          1.39500000	         59.36993719	        542.46355325	         20.79374844	         -0.08531118	          0.00000000	         -0.00786901	         -0.14720503	         -0.32612211	         -0.04842940	         -0.00128855	          0.00000000	         -0.00023457	          0.00000000	          0.72440946	          0.00000000	          0.00000000	          0.03026256	          0.00000000	
          1.40000000	         63.91227034	        552.87044786	         21.53724151	         -0.08484663	          0.00000000	         -0.00779736	         -0.15376626	         -1.12344064	         -0.11449687	         -0.00238921	          0.00000000	         -0.00040899	          0.00000000	          0.75532978	          0.00000000	          0.00000000	          0.03638987	          0.00000000	
          1.40500000	         68.47832769	        562.49388964	         22.05127006	         -0.08432097	          0.00000000	         -0.00763639	         -0.14503401	         -2.22821120	         -0.20340047	         -0.00381089	          0.00000000	         -0.00063052	          0.00000000	          0.78180297	          0.00000000	          0.00000000	          0.04145677	          0.00000000	
          1.41000000	         73.04269816	        571.16561806	         22.29614686	         -0.08373505	          0.00000000	         -0.00738814	         -0.11353035	         -3.67616699	         -0.31694994	         -0.00555784	          0.00000000	         -0.00089822	          0.00000000	          0.80320586	          0.00000000	          0.00000000	          0.04424522	          0.00000000	
          1.41500000	         77.57972673	        578.71217738	         22.23826758	         -0.08308951	          0.00000000	         -0.00705507	         -0.05040271	         -5.48070525	         -0.45492786	         -0.00759656	          0.00000000	         -0.00120488	          0.00000000	          0.81920893	          0.00000000	          0.00000000	          0.04313678	          0.00000000	
          1.42000000	         82.06302946	        584.95482320	         21.85132284	         -0.08238508	          0.00000000	         -0.00663876	          0.05425332	         -7.61874075	         -0.61398244	         -0.00983884	          0.00000000	         -0.00153449	          0.00000000	          0.82949827	          0.00000000	          0.00000000	          0.03608833	          0.00000000	
          1.42500000	         86.46622981	        589.71374853	         21.11822882	         -0.08162306	          0.00000000	         -0.00614144	          0.21076085	        -10.01314526	         -0.78628765	         -0.01212199	          0.00000000	         -0.00185923	          0.00000000	          0.83344455	          0.00000000	          0.00000000	          0.02064642	          0.00000000	
          1.43000000	         90.76285941	        592.81515313	         20.03208745	         -0.08080439	          0.00000000	         -0.00556926	          0.42882280	        -12.51202908	         -0.95800556	         -0.01418731	          0.00000000	         -0.00213633	          0.00000000	          0.83058272	          0.00000000	          0.00000000	         -0.00597967	          0.00000000	
          1.43500000	         94.92591806	        594.09800753	         18.59822596	         -0.07993099	          0.00000000	         -0.00493110	          0.71597827	        -14.86565328	         -1.10762999	         -0.01565823	          0.00000000	         -0.00230496	          0.00000000	          0.82045537	          0.00000000	          0.00000000	         -0.04676239	          0.00000000	
          1.44000000	         98.92700762	        593.42065612	         16.83502940	         -0.07900785	          0.00000000	         -0.00423769	          1.07546247	        -16.70249463	         -1.20434942	         -0.01602085	          0.00000000	         -0.00228366	          0.00000000	          0.80307249	          0.00000000	          0.00000000	         -0.10459102	          0.00000000	
          1.44500000	        102.73437139	        590.66132329	         14.77591998	         -0.07804170	          0.00000000	         -0.00349988	          1.50340012	        -17.50694116	         -1.20664163	         -0.01461050	          0.00000000	         -0.00196880	          0.00000000	          0.77923954	          0.00000000	          0.00000000	         -0.18186881	          0.00000000	
          1.45000000	        106.31185905	        585.71412581	         12.46801764	         -0.07703957	          0.00000000	         -0.00272830	          1.98530595	        -16.60228132	         -1.06140326	         -0.01060935	          0.00000000	         -0.00123500	          0.00000000	          0.75059181	          0.00000000	          0.00000000	         -0.27994468	          0.00000000	
          1.45500000	        109.61840248	        578.48277360	          9.96963959	         -0.07601030	          0.00000000	         -0.00193199	          2.49193615	        -13.14404563	         -0.70402066	         -0.00306159	          0.00000000	          0.00006157	          0.00000000	          0.71852791	          0.00000000	          0.00000000	         -0.39835718	          0.00000000	
          1.46000000	        112.60549069	        568.87019937	          7.34560448	         -0.07496321	          0.00000000	         -0.00111756	          2.97463931	         -6.13031316	         -0.05989998	          0.00908580	          0.00000000	          0.00207583	          0.00000000	          0.68398896	          0.00000000	          0.00000000	         -0.53387859	          0.00000000	
          1.46500000	        115.21097529	        556.77129878	          4.66343635	         -0.07390432	          0.00000000	         -0.00028958	          3.36050027	          5.56279871	          0.95191610	          0.02690766	          0.00000000	          0.00496081	          0.00000000	          0.64781452	          0.00000000	          0.00000000	         -0.67936571	          0.00000000	
          1.47000000	        117.35325587	        542.07516429	          1.98907048	         -0.07283362	          0.00000000	          0.00054807	          3.54775997	         23.11075082	          2.41232357	          0.05138024	          0.00000000	          0.00884779	          0.00000000	          0.61109875	          0.00000000	          0.00000000	         -0.82245051	          0.00000000	
          1.47500000	        118.92735668	        524.67641569	         -0.61639190	         -0.07174405	          0.00000000	          0.00139402	          3.40223052	         47.62446676	          4.39214612	          0.08320566	          0.00000000	          0.01381788	          0.00000000	          0.57466678	          0.00000000	          0.00000000	         -0.94414279	          0.00000000	
